<mxfile host="65bd71144e">
    <diagram id="Zlm3USrcWIn34ARAeyk2" name="Page-1">
        <mxGraphModel dx="1560" dy="924" grid="1" gridSize="10" guides="1" tooltips="1" connect="1" arrows="1" fold="1" page="1" pageScale="1" pageWidth="827" pageHeight="1169" math="0" shadow="0">
            <root>
                <mxCell id="0"/>
                <mxCell id="1" parent="0"/>
                <mxCell id="22" value="" style="rounded=0;whiteSpace=wrap;html=1;strokeColor=none;" parent="1" vertex="1">
                    <mxGeometry x="25" y="150" width="575" height="360" as="geometry"/>
                </mxCell>
                <mxCell id="5" value="" style="rounded=0;whiteSpace=wrap;html=1;strokeColor=#000000;" parent="1" vertex="1">
                    <mxGeometry x="164" y="160" width="430" height="340" as="geometry"/>
                </mxCell>
                <mxCell id="23" value="&lt;br&gt;&lt;br&gt;&lt;br&gt;Consumer X" style="rounded=1;whiteSpace=wrap;html=1;fillColor=#B3B3B3;" parent="1" vertex="1">
                    <mxGeometry x="334" y="416" width="90" height="60" as="geometry"/>
                </mxCell>
                <mxCell id="13" style="edgeStyle=none;html=1;strokeColor=#FF6666;fillColor=#FF0000;entryX=0;entryY=0.5;entryDx=0;entryDy=0;" parent="1" source="4" target="20" edge="1">
                    <mxGeometry relative="1" as="geometry">
                        <mxPoint x="194" y="275" as="targetPoint"/>
                    </mxGeometry>
                </mxCell>
                <mxCell id="4" value="Video Camera" style="points=[[0,0.5,0],[0.19,0.02,0],[0.59,0,0],[0.985,0.02,0],[1,0.5,0],[0.985,0.98,0],[0.59,1,0],[0.19,0.98,0]];verticalLabelPosition=bottom;sketch=0;html=1;verticalAlign=top;aspect=fixed;align=center;pointerEvents=1;shape=mxgraph.cisco19.camera;fillColor=#005073;strokeColor=none;" parent="1" vertex="1">
                    <mxGeometry x="44" y="250" width="90" height="50" as="geometry"/>
                </mxCell>
                <mxCell id="14" style="edgeStyle=none;html=1;fillColor=#FF0000;strokeColor=#007FFF;exitX=1;exitY=0.5;exitDx=0;exitDy=0;entryX=0;entryY=0.5;entryDx=0;entryDy=0;" parent="1" source="20" target="8" edge="1">
                    <mxGeometry relative="1" as="geometry">
                        <mxPoint x="284" y="275" as="sourcePoint"/>
                    </mxGeometry>
                </mxCell>
                <mxCell id="16" style="edgeStyle=none;html=1;entryX=0;entryY=0.5;entryDx=0;entryDy=0;strokeColor=#007FFF;exitX=0.5;exitY=1;exitDx=0;exitDy=0;" parent="1" source="20" target="10" edge="1">
                    <mxGeometry relative="1" as="geometry">
                        <Array as="points">
                            <mxPoint x="239" y="425"/>
                        </Array>
                        <mxPoint x="239" y="300" as="sourcePoint"/>
                    </mxGeometry>
                </mxCell>
                <mxCell id="15" style="edgeStyle=none;html=1;fillColor=#FF3333;shadow=0;strokeColor=#007FFF;" parent="1" source="8" target="21" edge="1">
                    <mxGeometry relative="1" as="geometry">
                        <mxPoint x="434" y="275" as="targetPoint"/>
                    </mxGeometry>
                </mxCell>
                <mxCell id="8" value="Back Pressure" style="rounded=1;whiteSpace=wrap;html=1;fillColor=#B3B3B3;" parent="1" vertex="1">
                    <mxGeometry x="318" y="245" width="86" height="60" as="geometry"/>
                </mxCell>
                <mxCell id="10" value="User Interface" style="rounded=1;whiteSpace=wrap;html=1;fillColor=#B3B3B3;" parent="1" vertex="1">
                    <mxGeometry x="316" y="396" width="90" height="60" as="geometry"/>
                </mxCell>
                <mxCell id="11" value="&lt;b&gt;IoT Edge Device&lt;/b&gt;" style="text;html=1;strokeColor=none;fillColor=#E6E6E6;align=center;verticalAlign=middle;whiteSpace=wrap;rounded=0;" parent="1" vertex="1">
                    <mxGeometry x="324" y="170" width="110" height="30" as="geometry"/>
                </mxCell>
                <mxCell id="12" value="&lt;br&gt;&lt;br&gt;&lt;br&gt;ML on Edge" style="rounded=1;whiteSpace=wrap;html=1;fillColor=#CCCCCC;" parent="1" vertex="1">
                    <mxGeometry x="460" y="266" width="86" height="60" as="geometry"/>
                </mxCell>
                <mxCell id="17" style="edgeStyle=none;html=1;entryX=0.5;entryY=0;entryDx=0;entryDy=0;exitX=0.446;exitY=0.007;exitDx=0;exitDy=0;strokeColor=#4D9900;exitPerimeter=0;" parent="1" source="21" target="10" edge="1">
                    <mxGeometry relative="1" as="geometry">
                        <Array as="points">
                            <mxPoint x="479" y="200"/>
                            <mxPoint x="564" y="200"/>
                            <mxPoint x="564" y="360"/>
                            <mxPoint x="361" y="360"/>
                        </Array>
                        <mxPoint x="479" y="240" as="sourcePoint"/>
                    </mxGeometry>
                </mxCell>
                <mxCell id="20" value="Frame Provider" style="shape=process;whiteSpace=wrap;html=1;backgroundOutline=1;fillColor=#B3B3B3;" parent="1" vertex="1">
                    <mxGeometry x="190" y="245" width="100" height="60" as="geometry"/>
                </mxCell>
                <mxCell id="21" value="Frame Processor" style="shape=process;whiteSpace=wrap;html=1;backgroundOutline=1;fillColor=#B3B3B3;" parent="1" vertex="1">
                    <mxGeometry x="434" y="245" width="100" height="60" as="geometry"/>
                </mxCell>
            </root>
        </mxGraphModel>
    </diagram>
</mxfile>